<svg width="20" height="20" viewBox="0 0 20 20" fill="none" xmlns="http://www.w3.org/2000/svg">
<path d="M1.7462 7.34112C1.34181 8.71445 2.61141 9.56175 2.61141 9.56175C4.22576 10.6391 5.31339 10.2322 7.94527 9.8279C5.34368 10.4171 3.7012 10.2712 2.67971 11.8539C2.36399 12.3429 2.14744 12.963 2.25237 13.5533C2.34804 14.0917 2.70236 14.5762 3.18169 14.8238C3.66102 15.0717 4.97713 15.8125 5.4606 15.5734L5.45231 15.6159C5.45231 15.6159 6.00653 17.7628 7.33896 18.2294C8.67107 18.6961 9.55478 17.4399 9.55478 17.4399C10.4481 16.1694 11.181 15.4865 10.2714 11.54C11.212 16.0058 12.1945 15.9714 13.644 16.6101C13.644 16.6101 15.0374 17.224 15.9431 16.1259C16.8488 15.0278 15.9099 13.0173 15.9099 13.0173L15.9431 12.9682C16.5677 13.005 17.7319 13.2218 18.2066 12.0011C18.4045 11.4923 18.3553 10.511 18.1649 9.99924C17.956 9.43816 17.4566 9.02019 16.9384 8.76642C15.2618 7.94508 13.4677 8.94993 11.7455 9.35719C13.4544 8.712 16.3189 8.36652 17.1574 6.59729C17.1574 6.59729 17.7793 5.08284 16.7377 4.11742C15.6961 3.152 13.5282 3.8164 13.5282 3.8164L13.4796 3.7679C13.2829 2.98878 12.9585 2.48351 12.3603 2.01232C11.9167 1.70306 11.0678 1.57056 10.5578 1.7432C9.99845 1.93271 9.62755 2.29439 9.35711 2.81101C8.76175 4.18268 8.85352 5.08264 9.35711 7.6342C8.51785 4.65569 8.75112 3.37797 7.15559 2.40379C6.66254 2.10264 6.0448 1.90761 5.46948 2.03806C4.94455 2.15716 3.9921 3.03707 3.76822 3.53422C3.54435 4.0317 3.33184 4.87067 3.58602 5.35256L3.54392 5.34575C3.54392 5.34575 2.15058 5.96779 1.7462 7.34112Z" fill="black"/>
</svg>
