<svg width="20" height="20" viewBox="0 0 20 20" fill="none" xmlns="http://www.w3.org/2000/svg">
<path fill-rule="evenodd" clip-rule="evenodd" d="M5.71832 6.90756C6.11804 4.46429 6.3179 3.24266 7.08896 2.50358C7.29884 2.3024 7.53501 2.13131 7.79085 1.9951C8.73079 1.49469 9.93812 1.69691 12.3528 2.10136C14.7674 2.50581 15.9748 2.70804 16.7052 3.48823C16.904 3.7006 17.0731 3.93957 17.2077 4.19844C17.7023 5.14951 17.5024 6.37115 17.1027 8.81442L16.3974 13.1251C15.9977 15.5684 15.7978 16.79 15.0268 17.5291C14.8169 17.7303 14.5807 17.9014 14.3249 18.0376C13.385 18.538 12.1776 18.3357 9.76299 17.9313C7.34833 17.5268 6.14099 17.3246 5.41056 16.5444C5.21174 16.3321 5.04266 16.0931 4.90804 15.8342C4.4135 14.8832 4.61336 13.6615 5.01308 11.2182L5.71832 6.90756ZM10.1077 11.9418L8.94657 11.7342C8.17519 11.5261 7.66656 10.7442 7.81107 9.94034C7.94503 9.12152 8.67554 8.54721 9.47203 8.60175L9.68699 8.63775L9.7749 8.10041C9.99318 7.322 10.7532 6.80522 11.5625 6.94076C12.3717 7.07631 12.9393 7.81546 12.8854 8.6214L12.7975 9.15875L13.0124 9.19476C13.7817 9.41562 14.2924 10.1847 14.1585 11.0035C14.0245 11.8223 13.294 12.3966 12.4975 12.3421L11.3342 12.1472L11.4765 13.1832C11.483 13.3026 11.3883 13.405 11.2618 13.3839L9.78246 13.1361C9.65602 13.1149 9.58635 12.9849 9.64312 12.8761L10.1077 11.9418Z" fill="black"/>
<path d="M6.85294 1.92341C5.93465 2.74071 5.73037 4.064 5.32181 6.71057L4.60097 11.3799C4.25492 13.6216 4.05542 14.9139 4.38873 15.8727C4.37141 15.8639 4.35421 15.8548 4.33711 15.8454C4.11285 15.7225 3.90631 15.569 3.72328 15.3893C3.05087 14.729 2.88742 13.6492 2.56051 11.4895L1.98375 7.67931C1.65684 5.51968 1.49339 4.43987 1.93966 3.60623C2.06113 3.37932 2.2128 3.17034 2.39043 2.98515C3.04298 2.3048 4.11015 2.13943 6.24449 1.80872C6.5803 1.75668 6.88968 1.70874 7.17586 1.66666C7.06303 1.74667 6.95521 1.83238 6.85294 1.92341Z" fill="black"/>
</svg>
