<svg width="20" height="20" viewBox="0 0 20 20" fill="none" xmlns="http://www.w3.org/2000/svg">
<path fill-rule="evenodd" clip-rule="evenodd" d="M10 0.833344C7.9609 0.833344 6.25008 1.86546 5.78358 3.25705C4.5902 3.31966 3.84265 3.50329 3.30931 4.04178C2.5 4.85891 2.5 6.17406 2.5 8.80436V13.587C2.5 16.2173 2.5 17.5324 3.30931 18.3495C4.11862 19.1667 5.42119 19.1667 8.02632 19.1667H11.9737C14.5788 19.1667 15.8814 19.1667 16.6907 18.3495C17.5 17.5324 17.5 16.2173 17.5 13.587V13.2046L17.4994 8.12965C17.4935 5.94281 17.4276 4.78583 16.6907 4.04178C16.1574 3.50329 15.4098 3.31966 14.2164 3.25705C13.7499 1.86546 12.0391 0.833344 10 0.833344ZM5.65789 16.7754C5.65789 16.3351 6.01135 15.9783 6.44737 15.9783H13.5526C13.9886 15.9783 14.3421 16.3351 14.3421 16.7754C14.3421 17.2156 13.9886 17.5725 13.5526 17.5725H6.44737C6.01135 17.5725 5.65789 17.2156 5.65789 16.7754ZM5.33088 5.28578C4.86842 5.75271 4.86842 6.50423 4.86842 8.00726V8.80436C4.86842 10.3074 4.86842 11.0589 5.33088 11.5258C5.3445 11.5396 5.35767 11.5529 5.37046 11.5659C5.50357 11.7007 5.59464 11.7929 5.70245 11.856C5.93606 11.9928 6.24822 11.9928 7.23684 11.9928V4.81885C6.24822 4.81885 5.93606 4.81885 5.70245 4.95561C5.59464 5.01872 5.50356 5.11095 5.37046 5.24575C5.35767 5.2587 5.3445 5.27204 5.33088 5.28578ZM8.81579 4.81885V11.9928H11.1842V4.81885H8.81579ZM12.7632 11.9928V4.81885C13.7518 4.81885 14.0639 4.81885 14.2976 4.95561C14.4157 5.02479 14.5138 5.12894 14.6691 5.28578C15.1316 5.75271 15.1316 6.50423 15.1316 8.00726V8.80436C15.1316 10.3074 15.1316 11.0589 14.6691 11.5258C14.5138 11.6827 14.4157 11.7868 14.2976 11.856C14.0639 11.9928 13.7518 11.9928 12.7632 11.9928Z" fill="black"/>
</svg>
